# Blender v2.92.0 OBJ File: ''
# www.blender.org
mtllib HalfGround_tile.mtl
o Cube
v 1.251517 2.521130 -1.251517
v 1.251517 0.018096 -1.251517
v -1.251517 2.521130 -1.251517
v -1.251517 0.018096 -1.251517
v -1.251517 2.521130 1.251517
v -1.251517 0.018096 1.251517
v -1.228984 0.018096 1.251517
v -1.228984 2.521130 1.251517
v 1.251517 0.018096 -1.228984
v 1.251517 2.521130 -1.228984
vt 0.375000 0.000000
vt 0.625000 0.000000
vt 0.625000 0.250000
vt 0.375000 0.250000
vt 0.625000 0.500000
vt 0.375000 0.500000
vt 0.530490 0.193146
vt 0.530490 0.033080
vt 0.461277 0.033080
vt 0.461277 0.193146
vt 0.625000 0.502251
vt 0.875000 0.500000
vt 0.875000 0.750000
vt 0.872749 0.750000
vt 0.625000 0.997749
vt 0.625000 1.000000
vt 0.375000 1.000000
vt 0.375000 0.997749
vt 0.125000 0.750000
vt 0.125000 0.500000
vt 0.375000 0.502251
vt 0.127251 0.750000
vn -1.0000 0.0000 0.0000
vn 0.0000 0.0000 -1.0000
vn 0.7071 0.0000 0.7071
vn 0.0000 1.0000 0.0000
vn 0.0000 0.0000 1.0000
vn 0.0000 -1.0000 0.0000
vn 1.0000 0.0000 0.0000
usemtl Material
s off
f 6/1/1 5/2/1 3/3/1 4/4/1
f 4/4/2 3/3/2 1/5/2 2/6/2
f 10/7/3 8/8/3 7/9/3 9/10/3
f 10/11/4 1/5/4 3/12/4 5/13/4 8/14/4
f 8/15/5 5/16/5 6/17/5 7/18/5
f 6/19/6 4/20/6 2/6/6 9/21/6 7/22/6
f 2/6/7 1/5/7 10/11/7 9/21/7
